<?xml version="1.0" encoding="UTF-8"?>
<svg xmlns="http://www.w3.org/2000/svg" xmlns:xlink="http://www.w3.org/1999/xlink" width="512pt" height="512pt" viewBox="0 0 512 512" version="1.1">
<defs>
<linearGradient id="linear0" gradientUnits="userSpaceOnUse" x1="75.25" y1="40.94245" x2="75.25" y2="48.67385" gradientTransform="matrix(6.4,0,0,6.4,0,0)">
<stop offset="0" style="stop-color:rgb(54.117647%,70.588235%,100%);stop-opacity:1;"/>
<stop offset="1" style="stop-color:rgb(89.411765%,57.254902%,100%);stop-opacity:1;"/>
</linearGradient>
<linearGradient id="linear1" gradientUnits="userSpaceOnUse" x1="96.75" y1="122.8252" x2="96.75" y2="130.7845" gradientTransform="matrix(6.4,0,0,6.4,0,0)">
<stop offset="0" style="stop-color:rgb(54.117647%,70.588235%,100%);stop-opacity:1;"/>
<stop offset="1" style="stop-color:rgb(89.411765%,57.254902%,100%);stop-opacity:1;"/>
</linearGradient>
<linearGradient id="linear2" gradientUnits="userSpaceOnUse" x1="86" y1="31.519" x2="86" y2="139.47695" gradientTransform="matrix(2.976744,0,0,2.976744,0,0)">
<stop offset="0" style="stop-color:rgb(10.196078%,42.745098%,100%);stop-opacity:1;"/>
<stop offset="1" style="stop-color:rgb(78.431373%,13.333333%,100%);stop-opacity:1;"/>
</linearGradient>
</defs>
<g id="surface20368983">
<path style=" stroke:none;fill-rule:nonzero;fill:rgb(80%,80%,80%);fill-opacity:1;" d="M 61.441406 512 C 27.507812 512 0 484.492188 0 450.558594 L 0 61.441406 C 0 27.507812 27.507812 0 61.441406 0 L 450.558594 0 C 484.492188 0 512 27.507812 512 61.441406 L 512 450.558594 C 512 484.492188 484.492188 512 450.558594 512 Z M 61.441406 512 "/>
<path style=" stroke:none;fill-rule:nonzero;fill:url(#linear0);" d="M 236.800781 134.398438 C 236.800781 141.46875 231.070312 147.199219 224 147.199219 C 216.929688 147.199219 211.199219 141.46875 211.199219 134.398438 C 211.199219 127.332031 216.929688 121.601562 224 121.601562 C 231.070312 121.601562 236.800781 127.332031 236.800781 134.398438 Z M 236.800781 134.398438 "/>
<path style=" stroke:none;fill-rule:nonzero;fill:url(#linear1);" d="M 300.800781 377.601562 C 300.800781 384.667969 295.070312 390.398438 288 390.398438 C 280.929688 390.398438 275.199219 384.667969 275.199219 377.601562 C 275.199219 370.53125 280.929688 364.800781 288 364.800781 C 295.070312 364.800781 300.800781 370.53125 300.800781 377.601562 Z M 300.800781 377.601562 "/>
<path style=" stroke:none;fill-rule:nonzero;fill:url(#linear2);" d="M 377.601562 185.601562 L 332.800781 185.601562 L 332.800781 134.398438 C 332.800781 109.703125 312.703125 89.601562 288 89.601562 L 224 89.601562 C 199.296875 89.601562 179.199219 109.703125 179.199219 134.398438 L 179.199219 185.601562 L 134.398438 185.601562 C 109.695312 185.601562 89.601562 205.703125 89.601562 230.398438 L 89.601562 281.601562 C 89.601562 306.296875 109.695312 326.398438 134.398438 326.398438 L 179.199219 326.398438 L 179.199219 377.601562 C 179.199219 402.296875 199.296875 422.398438 224 422.398438 L 288 422.398438 C 312.703125 422.398438 332.800781 402.296875 332.800781 377.601562 L 332.800781 326.398438 L 377.601562 326.398438 C 402.304688 326.398438 422.398438 306.296875 422.398438 281.601562 L 422.398438 230.398438 C 422.398438 205.703125 402.304688 185.601562 377.601562 185.601562 Z M 134.398438 313.601562 C 116.753906 313.601562 102.398438 299.246094 102.398438 281.601562 L 102.398438 249.601562 L 147.199219 249.601562 L 147.199219 236.800781 L 102.398438 236.800781 L 102.398438 230.398438 C 102.398438 228.210938 102.625 226.066406 103.046875 224 L 198.398438 224 L 198.398438 211.199219 L 108.964844 211.199219 C 114.816406 203.476562 123.992188 198.398438 134.398438 198.398438 L 236.800781 198.398438 L 236.800781 185.601562 L 192 185.601562 L 192 134.398438 C 192 116.753906 206.355469 102.398438 224 102.398438 L 288 102.398438 C 305.644531 102.398438 320 116.753906 320 134.398438 L 320 230.398438 C 320 240.984375 311.386719 249.601562 300.800781 249.601562 L 211.199219 249.601562 C 193.554688 249.601562 179.199219 263.957031 179.199219 281.601562 L 179.199219 313.601562 Z M 377.601562 313.601562 L 275.199219 313.601562 L 275.199219 326.398438 L 320 326.398438 L 320 377.601562 C 320 395.246094 305.644531 409.601562 288 409.601562 L 224 409.601562 C 206.355469 409.601562 192 395.246094 192 377.601562 L 192 281.601562 C 192 271.015625 200.613281 262.398438 211.199219 262.398438 L 300.800781 262.398438 C 318.445312 262.398438 332.800781 248.042969 332.800781 230.398438 L 332.800781 198.398438 L 377.601562 198.398438 C 395.246094 198.398438 409.601562 212.753906 409.601562 230.398438 L 409.601562 262.398438 L 364.800781 262.398438 L 364.800781 275.199219 L 409.601562 275.199219 L 409.601562 281.601562 C 409.601562 283.789062 409.375 285.933594 408.953125 288 L 313.601562 288 L 313.601562 300.800781 L 403.035156 300.800781 C 397.191406 308.523438 388.011719 313.601562 377.601562 313.601562 Z M 377.601562 313.601562 "/>
</g>
</svg>
